#!OML:ASF E:/inclinewalkrobotboard/Project1/Captureday1/Session1/subject1.ASF
:FULLY-SPECIFIED
:DEGREES
201
root 0 0 0 -4.000945425773441 -3.1742226633274124 -5.8496172442894245
lowerback 8.38715648990304 0.28526182042018944 3.5683138369937444
upperback -0.6436025267271496 1.0146215741240063 2.9019654739856113
thorax -5.272014597448468 0.4467895686790455 0.9354227357564263
lowerneck -18.304260668122936 -2.9840566909031523 -1.6685993399187629
upperneck 22.278797888318636 -3.8399984518978525 0.3594561690696154
head 10.261566112058931 -1.8267279678282295 -0.14503877528904607
rclavicle -1.2978585257310197E-15 -1.500954528199276E-15
rhumerus -33.31460483308378 -24.276117093880707 -80.37771680127885
rradius 18.038962035908447
rwrist 10.682966008261747
rhand -18.05506454470602 25.50050572055177
rfingers 7.125020000000018
rthumb 8.232954522565494 -4.324733627460887
lclavicle -3.749908149091582E-15 -1.1306251907088742E-15
lhumerus -29.22086506008317 -1.3463390578228813 85.01894080160551
lradius 26.666167523888483
lwrist 6.198823280976217
lhand -28.103228797924924 26.140838758249895
lfingers 7.1250200000000445
lthumb -1.4824971513628107 56.16979876245082
rfemur -4.9914723100002405 7.834844733471334 34.954260666680796
rtibia 35.452523153724115
rfoot -14.329743853458146 -5.485724936026026
rtoes 9.110789090060157
lfemur -19.35461230859675 3.5607555001844435 -14.437124203554623
ltibia 57.86941995730611
lfoot 4.411395464878051 -11.2415558593106
ltoes -5.4592352956328085
202
root 0 0 0 -3.4996944740990554 -4.826083418304903 -7.635530958884637
lowerback 8.558300619090952 1.408114360477736 5.686534227937417
upperback -0.5362977650650712 2.7678968345457617 2.937648159115291
thorax -5.193563227585136 1.2688451217821695 -0.4674055062434116
lowerneck -17.925971516778162 -3.467356428259812 -1.8943407936475731
upperneck 22.571765144053934 -4.478538890120357 0.7611406007945721
head 10.266671829401695 -2.135560409426313 -0.057893532302976614
rclavicle -2.564755763240062E-15 9.914438207597382E-16
rhumerus -33.55832482277268 -21.148821960213432 -81.72666643638264
rradius 18.614485255479835
rwrist 8.983192248165771
rhand -17.91949831737601 26.144874958218033
rfingers 7.125020000000019
rthumb 8.364071964564616 -3.619112238261991
lclavicle -5.579451609995884E-15 1.1821006039777058E-15
lhumerus -30.138360906313967 -0.646392535031857 85.51410542497838
lradius 25.79533438001861
lwrist 5.894225030081487
lhand -27.95411803483362 26.265265460327768
lfingers 7.125020000000045
lthumb -1.3444264814276234 56.29488297568474
rfemur -2.6486533091242386 8.119675556769616 35.014989681204256
rtibia 31.724445874743367
rfoot -16.574598018873758 -5.745077418025877
rtoes 8.278019247967222
lfemur -27.972157490636373 3.069962255559645 -10.678302659273577
ltibia 55.609970232057734
lfoot 1.2279045295031565 -6.241322508540408
ltoes -8.689425567665701
203
root 0 0 0 -2.4740496090759834 -5.754012696956182 -7.673675676608315
lowerback 11.683410169412348 2.108394850241053 6.51505459738501
upperback 1.2936871107826686 3.7477042347261476 2.5192860779369095
thorax -4.96264108673525 1.7269239823831504 -1.5483122643193776
lowerneck -17.093430061743398 -3.5884839085133615 -2.144693576337801
upperneck 22.19679448512459 -4.564996599660942 0.7746984301479253
head 9.981353656423648 -2.207532576086341 -0.007226398183009575
rclavicle -2.632722380999226E-15 2.6378877927838226E-15
rhumerus -31.503100691091262 -16.295855766427387 -82.33397334400667
rradius 22.742059370799957
rwrist 7.481992248586448
rhand -18.548497037252254 28.41593060363708
rfingers 7.1250200000000214
rthumb 7.758592125906284 -1.3823809101739215
lclavicle -6.1428955962641635E-15 2.1274003963920706E-15
lhumerus -30.569148430541055 -0.3722317990805577 86.26726947730465
lradius 25.164776784803763
lwrist 5.741477742189556
lhand -27.870030756440585 26.354210801151606
lfingers 7.125020000000046
lthumb -1.2611064713657072 56.39416738376984
rfemur -0.2689460368196217 8.47145327684782 35.15158286125636
rtibia 28.149302554827543
rfoot -18.74301752095184 -6.199825829186825
rtoes 5.775682664757067
lfemur -31.141337730333202 1.3394797590718337 -9.595767438578424
ltibia 47.30489944776541
lfoot -1.9287887441006983 -1.6639283018169677
ltoes -10.546791023595546
204
root 0 0 0 -2.307340428569881 -5.959144836279623 -7.396617242491754
lowerback 11.791694399409778 2.2962863274103134 6.495537089553931
upperback 1.4699604935891086 3.9556682149686617 2.2041993536065885
thorax -4.846684675435762 1.8259553374592383 -1.8987638394028763
lowerneck -17.113541615661052 -3.5523302113474116 -2.151425248640076
upperneck 21.79301861480882 -4.548437065276575 0.8142293048613732
head 9.826302839191744 -2.1924820999279797 0.017213747360052878
rclavicle -3.111142202561976E-15 1.9020778755519533E-15
rhumerus -29.77418889460032 -13.947605762566027 -82.46800616680602
rradius 26.069864433995207
rwrist 7.74503590162777
rhand -19.209954493578266 29.569921771689806
rfingers 7.125020000000018
rthumb 7.121759635622764 -0.3046837002838316
lclavicle -6.720076034313391E-15 1.3053635806601994E-15
lhumerus -30.36670894944988 -0.3231678637326293 86.38040306586092
lradius 24.90258800713199
lwrist 5.616286201826966
lhand -27.919401836269813 26.4032641553465
lfingers 7.125020000000046
lthumb -1.308327971313025 56.448573501735495
rfemur 0.3090127037449344 8.43592873019634 35.31673584668748
rtibia 28.53938892478874
rfoot -19.24089148680555 -6.415396475347045
rtoes 3.3493785885513825
lfemur -31.272930754441113 -0.29521685730808 -9.76267375823511
ltibia 36.98444408329442
lfoot -5.136746180973031 2.0066053523303697
ltoes -11.105358794225985
